<svg width="18" height="20" viewBox="0 0 18 20" fill="none" xmlns="http://www.w3.org/2000/svg">
<path d="M0.650879 6.6858V16.3864V17.3564C1.5542 18.4181 2.20522 18.8214 3.55004 19.2965C4.42035 19.407 4.89672 19.4046 5.72441 19.2965C6.03549 18.9427 6.19405 18.7312 6.4492 18.3265V13.7187C6.85518 13.2498 7.06945 12.9834 7.41559 12.5061H10.3147C10.7215 12.9745 10.9852 13.2405 11.5227 13.7187V18.3265C11.765 18.7157 11.9259 18.9275 12.2475 19.2965C13.0971 19.3903 13.5722 19.3899 14.4219 19.2965C15.6345 18.715 16.2178 18.2943 17.0795 17.3564V6.6858C14.8476 4.09546 13.4155 2.8039 10.3147 0.865468C9.1997 0.674565 8.56496 0.667273 7.41559 0.865468C4.68513 2.65496 3.20708 3.94625 0.650879 6.6858Z" fill="#4EC4FE" stroke="#4EC4FE"/>
</svg>
